<?xml version="1.0" encoding="UTF-8" standalone="no"?>
<!-- Created with Inkscape (http://www.inkscape.org/) -->
<svg version="1.1" id="svg1" width="1358.72" height="546.22668" viewBox="0 0 1358.72 546.22668" sodipodi:docname="2024.09.12_Logo_COLOR_004477.svg" inkscape:version="1.4-beta3 (01c8a1ca, 2024-08-28)" xmlns:inkscape="http://www.inkscape.org/namespaces/inkscape" xmlns:sodipodi="http://sodipodi.sourceforge.net/DTD/sodipodi-0.dtd" xmlns="http://www.w3.org/2000/svg" xmlns:svg="http://www.w3.org/2000/svg">
  <defs id="defs1"/>
  <sodipodi:namedview id="namedview1" pagecolor="#ffffff" bordercolor="#000000" borderopacity="0.25" inkscape:showpageshadow="2" inkscape:pageopacity="0.0" inkscape:pagecheckerboard="0" inkscape:deskcolor="#d1d1d1" inkscape:zoom="0.68299579" inkscape:cx="371.89102" inkscape:cy="316.25378" inkscape:window-width="2560" inkscape:window-height="1359" inkscape:window-x="2560" inkscape:window-y="25" inkscape:window-maximized="0" inkscape:current-layer="group-R5">
    <inkscape:page x="0" y="0" inkscape:label="1" id="page1" width="1358.72" height="546.22668" margin="0" bleed="0"/>
  </sodipodi:namedview>
  <g id="g1" inkscape:groupmode="layer" inkscape:label="1">
    <g id="group-R5">
      <path id="path2" d="m 378.65793,473.44281 v -36.53494 c 78.16097,0 142.08417,-59.72786 145.23597,-134.28519 h 37.92815 c -3.17394,94.70799 -84.08945,170.82013 -183.16412,170.82013" style="fill:#dad7d7;fill-opacity:1;fill-rule:nonzero;stroke:none;stroke-width:0.135852"/>
      <path id="path3" d="M 2837.77,1121.3 V 847.289 c 555.41,0 1011.3,433.401 1047.77,979.741 H 3610.66 C 3574.84,1431.95 3242.03,1121.3 2837.77,1121.3" style="fill:#00388b;fill-opacity:1;fill-rule:nonzero;stroke:none" transform="matrix(0.13333333,0,0,-0.13333333,0,546.22667)"/>
      <path id="path4" d="M 2810.37,847.289 V 1121.3 c -404.26,0 -737.08,310.65 -772.89,705.73 H 1762.6 c 36.47,-546.34 492.35,-979.741 1047.77,-979.741" style="fill:#d3d2d2;fill-opacity:1;fill-rule:nonzero;stroke:none" transform="matrix(0.13333333,0,0,-0.13333333,0,546.22667)"/>
      <path id="path5" d="m 190.85019,285.90134 c 0,-97.36933 80.94499,-176.58133 180.44152,-176.58133 V 72.785349 c -120.273,0 -217.77486,95.414661 -217.77486,213.115991 0,1.93334 0.0967,3.84267 0.14987,5.76134 h 37.33198 c -0.0627,-1.91867 -0.14851,-3.828 -0.14851,-5.76134" style="fill:#d3d2d2;fill-opacity:1;fill-rule:nonzero;stroke:none;stroke-width:0.134782"/>
      <path id="path6" d="m 1732.62,1925.04 c 0,579.16 471.19,1050.35 1050.35,1050.35 v 274.01 c -730.26,0 -1324.36,-594.09 -1324.36,-1324.36 0,-5.3 0.14,-10.55 0.27,-15.81 h 273.97 c -0.11,5.26 -0.23,10.52 -0.23,15.81" style="fill:#00388b;fill-opacity:1;fill-rule:nonzero;stroke:none" transform="matrix(0.13333333,0,0,-0.13333333,0,546.22667)"/>
      <path id="path7" d="M 1140.69,1875.53 H 8536.5 v -24.92 H 1140.69 v 24.92" style="fill:#181819;fill-opacity:1;fill-rule:nonzero;stroke:none" transform="matrix(0.13333333,0,0,-0.13333333,0,546.22667)"/>
      <path id="path8" d="m 3234.73,2147.29 85.86,123.02 c 61.1,-42.11 138.71,-66.87 220.45,-66.87 116.42,0 121.37,16.51 121.37,50.36 0,30.54 -40.45,37.98 -127.15,48.71 -179.17,22.29 -261.73,56.97 -261.73,194.85 0,146.14 85.87,195.69 271.64,195.69 139.54,0 219.63,-33.03 265.86,-62.76 l -92.47,-132.93 c -35.5,23.95 -111.46,47.07 -175.04,47.07 -89.17,0 -99.91,-13.22 -99.91,-42.94 0,-34.68 43.76,-39.63 135.41,-51.19 152.75,-19.81 252.65,-47.06 252.65,-188.24 0,-124.68 -62.75,-199.82 -285.67,-199.82 -136.23,0 -245.22,33.86 -311.27,85.05" style="fill:#00388b;fill-opacity:1;fill-rule:nonzero;stroke:none" transform="matrix(0.13333333,0,0,-0.13333333,0,546.22667)"/>
      <path id="path9" d="m 4033.94,2377.64 c 0,222.93 123.85,315.41 331.91,315.41 123.85,0 194.03,-32.21 253.48,-94.96 l -118.07,-118.07 c -33.85,34.68 -69.35,56.15 -136.23,56.15 -116.42,0 -158.53,-56.15 -158.53,-161.01 0,-99.07 31.38,-160.17 159.35,-160.17 73.49,0 106.51,23.94 145.32,60.27 l 112.29,-109.8 c -52.02,-55.32 -119.72,-103.22 -268.34,-103.22 -241.09,0 -321.18,115.6 -321.18,315.4" style="fill:#00388b;fill-opacity:1;fill-rule:nonzero;stroke:none" transform="matrix(0.13333333,0,0,-0.13333333,0,546.22667)"/>
      <path id="path10" d="m 4873.62,2683.13 h 170.91 v -219.62 h 234.48 v 219.62 h 171.74 v -611.8 h -171.74 v 232.01 h -234.48 v -232.01 h -170.91 v 611.8" style="fill:#00388b;fill-opacity:1;fill-rule:nonzero;stroke:none" transform="matrix(0.13333333,0,0,-0.13333333,0,546.22667)"/>
      <path id="path11" d="m 5728.16,2683.13 h 223.75 l 137.06,-364.11 137.88,364.11 h 222.93 v -611.8 h -166.79 v 355.03 l -137.05,-355.03 h -127.98 l -135.41,352.56 v -352.56 h -154.39 v 611.8" style="fill:#00388b;fill-opacity:1;fill-rule:nonzero;stroke:none" transform="matrix(0.13333333,0,0,-0.13333333,0,546.22667)"/>
      <path id="path12" d="m 6737.91,2683.13 h 170.91 v -611.8 h -170.91 v 611.8" style="fill:#00388b;fill-opacity:1;fill-rule:nonzero;stroke:none" transform="matrix(0.13333333,0,0,-0.13333333,0,546.22667)"/>
      <path id="path13" d="m 7435.58,2219.95 c 153.57,0 171.73,43.76 171.73,157.69 0,113.12 -14.86,151.92 -179.99,151.92 h -60.27 v -309.61 z m -239.45,463.18 h 229.54 c 246.87,0 354.2,-58.61 354.2,-305.49 0,-242.74 -107.33,-306.31 -354.2,-306.31 h -229.54 v 611.8" style="fill:#00388b;fill-opacity:1;fill-rule:nonzero;stroke:none" transform="matrix(0.13333333,0,0,-0.13333333,0,546.22667)"/>
      <path id="path14" d="m 8169.58,2528.74 h -203.11 v 154.39 h 577.95 v -154.39 h -203.11 v -457.41 h -171.73 v 457.41" style="fill:#00388b;fill-opacity:1;fill-rule:nonzero;stroke:none" transform="matrix(0.13333333,0,0,-0.13333333,0,546.22667)"/>
      <path id="path15" d="m 4297.56,1651.29 h 137.94 v -26.4 h -110.46 v -57.95 h 107.74 v -26.11 h -107.74 v -65.84 h 111.55 v -25.3 h -139.03 v 201.6" style="fill:#231f20;fill-opacity:1;fill-rule:nonzero;stroke:none" transform="matrix(0.13333333,0,0,-0.13333333,0,546.22667)"/>
      <path id="path16" d="m 4488.55,1651.29 h 35.91 l 68.02,-162.97 68.28,162.97 h 35.37 v -201.6 h -26.93 v 155.62 l -65.84,-155.62 h -22.86 l -65.56,155.35 v -155.35 h -26.39 v 201.6" style="fill:#231f20;fill-opacity:1;fill-rule:nonzero;stroke:none" transform="matrix(0.13333333,0,0,-0.13333333,0,546.22667)"/>
      <path id="path17" d="m 4845.77,1474.44 c 29.92,0 43.53,9.52 43.53,33.47 0,23.12 -13.33,32.65 -44.07,32.65 h -62.85 v -66.12 z m -0.54,91.69 c 30.74,0 38.9,12.78 38.9,31.56 0,18.77 -10.88,28.57 -38.9,28.57 h -62.85 v -60.13 z m -89.79,85.16 h 88.97 c 47.07,0 67.47,-15.78 67.47,-49.79 0,-23.4 -7.07,-40.27 -25.3,-45.98 22.85,-5.72 30.47,-21.76 30.47,-50.06 0,-41.9 -25.31,-55.77 -74.28,-55.77 h -87.33 v 201.6" style="fill:#231f20;fill-opacity:1;fill-rule:nonzero;stroke:none" transform="matrix(0.13333333,0,0,-0.13333333,0,546.22667)"/>
      <path id="path18" d="m 4964.11,1651.29 h 137.94 v -26.4 h -110.46 v -57.95 h 107.74 v -26.11 h -107.74 v -65.84 h 111.55 v -25.3 h -139.03 v 201.6" style="fill:#231f20;fill-opacity:1;fill-rule:nonzero;stroke:none" transform="matrix(0.13333333,0,0,-0.13333333,0,546.22667)"/>
      <path id="path19" d="m 5220.93,1474.99 c 61.22,0 79.72,20.14 79.72,75.63 0,56.32 -15.51,74.54 -77.81,74.54 h -40.27 v -150.17 z m -65.84,176.3 h 67.48 c 76.72,0 105.83,-22.32 105.83,-100.67 0,-76.99 -31.83,-100.93 -108.82,-100.93 h -64.49 v 201.6" style="fill:#231f20;fill-opacity:1;fill-rule:nonzero;stroke:none" transform="matrix(0.13333333,0,0,-0.13333333,0,546.22667)"/>
      <path id="path20" d="m 5441.57,1474.99 c 61.22,0 79.72,20.14 79.72,75.63 0,56.32 -15.51,74.54 -77.81,74.54 h -40.27 v -150.17 z m -65.84,176.3 h 67.48 c 76.72,0 105.83,-22.32 105.83,-100.67 0,-76.99 -31.83,-100.93 -108.82,-100.93 h -64.49 v 201.6" style="fill:#231f20;fill-opacity:1;fill-rule:nonzero;stroke:none" transform="matrix(0.13333333,0,0,-0.13333333,0,546.22667)"/>
      <path id="path21" d="m 5596.37,1651.29 h 137.94 v -26.4 h -110.46 v -57.95 h 107.74 v -26.11 h -107.74 v -65.84 h 111.55 v -25.3 h -139.03 v 201.6" style="fill:#231f20;fill-opacity:1;fill-rule:nonzero;stroke:none" transform="matrix(0.13333333,0,0,-0.13333333,0,546.22667)"/>
      <path id="path22" d="m 5853.2,1474.99 c 61.22,0 79.72,20.14 79.72,75.63 0,56.32 -15.51,74.54 -77.82,74.54 h -40.26 v -150.17 z m -65.84,176.3 h 67.48 c 76.71,0 105.83,-22.32 105.83,-100.67 0,-76.99 -31.84,-100.93 -108.83,-100.93 h -64.48 v 201.6" style="fill:#231f20;fill-opacity:1;fill-rule:nonzero;stroke:none" transform="matrix(0.13333333,0,0,-0.13333333,0,546.22667)"/>
      <path id="path23" d="m 6071.11,1470.91 13.88,21.22 c 23.4,-15.24 47.61,-20.95 72.1,-20.95 41.08,0 56.58,10.61 56.58,35.1 0,25.03 -22.03,29.11 -56.86,34.82 -46.25,7.62 -75.09,15.51 -75.09,57.4 0,40.54 25.31,56.05 75.64,56.05 34.01,0 57.4,-7.89 73.46,-18.5 l -14.97,-22.58 c -13.87,9.25 -35.91,15.78 -58.49,15.78 -34.82,0 -48.43,-8.98 -48.43,-30.2 0,-22.85 19.86,-27.21 54.68,-33.19 45.17,-7.62 77.27,-14.43 77.27,-58.22 0,-40.27 -24.76,-60.68 -82.98,-60.68 -32.92,0 -61.76,7.08 -86.79,23.95" style="fill:#231f20;fill-opacity:1;fill-rule:nonzero;stroke:none" transform="matrix(0.13333333,0,0,-0.13333333,0,546.22667)"/>
      <path id="path24" d="m 6341.82,1525.87 -81.08,125.42 h 29.93 l 65.02,-100.39 65.57,100.39 h 28.57 l -80.81,-124.89 v -76.71 h -27.2 v 76.18" style="fill:#231f20;fill-opacity:1;fill-rule:nonzero;stroke:none" transform="matrix(0.13333333,0,0,-0.13333333,0,546.22667)"/>
      <path id="path25" d="m 6466.7,1470.91 13.87,21.22 c 23.4,-15.24 47.61,-20.95 72.1,-20.95 41.08,0 56.59,10.61 56.59,35.1 0,25.03 -22.04,29.11 -56.87,34.82 -46.25,7.62 -75.08,15.51 -75.08,57.4 0,40.54 25.3,56.05 75.63,56.05 34.01,0 57.4,-7.89 73.46,-18.5 l -14.97,-22.58 c -13.87,9.25 -35.91,15.78 -58.49,15.78 -34.82,0 -48.43,-8.98 -48.43,-30.2 0,-22.85 19.86,-27.21 54.69,-33.19 45.16,-7.62 77.26,-14.43 77.26,-58.22 0,-40.27 -24.75,-60.68 -82.98,-60.68 -32.92,0 -61.76,7.08 -86.78,23.95" style="fill:#231f20;fill-opacity:1;fill-rule:nonzero;stroke:none" transform="matrix(0.13333333,0,0,-0.13333333,0,546.22667)"/>
      <path id="path26" d="m 6735.5,1624.89 h -74 v 26.4 h 175.75 v -26.4 h -74 v -175.2 h -27.75 v 175.2" style="fill:#231f20;fill-opacity:1;fill-rule:nonzero;stroke:none" transform="matrix(0.13333333,0,0,-0.13333333,0,546.22667)"/>
      <path id="path27" d="m 6879.96,1651.29 h 137.94 v -26.4 h -110.46 v -57.95 h 107.74 v -26.11 h -107.74 v -65.84 h 111.55 v -25.3 h -139.03 v 201.6" style="fill:#231f20;fill-opacity:1;fill-rule:nonzero;stroke:none" transform="matrix(0.13333333,0,0,-0.13333333,0,546.22667)"/>
      <path id="path28" d="m 7070.94,1651.29 h 35.92 l 68.01,-162.97 68.29,162.97 h 35.37 v -201.6 h -26.93 v 155.62 l -65.84,-155.62 h -22.86 l -65.56,155.35 v -155.35 h -26.4 v 201.6" style="fill:#231f20;fill-opacity:1;fill-rule:nonzero;stroke:none" transform="matrix(0.13333333,0,0,-0.13333333,0,546.22667)"/>
      <path id="path29" d="m 7324.78,1470.91 13.88,21.22 c 23.39,-15.24 47.61,-20.95 72.09,-20.95 41.09,0 56.59,10.61 56.59,35.1 0,25.03 -22.04,29.11 -56.86,34.82 -46.25,7.62 -75.09,15.51 -75.09,57.4 0,40.54 25.3,56.05 75.64,56.05 34.01,0 57.4,-7.89 73.45,-18.5 l -14.96,-22.58 c -13.87,9.25 -35.92,15.78 -58.49,15.78 -34.83,0 -48.43,-8.98 -48.43,-30.2 0,-22.85 19.86,-27.21 54.68,-33.19 45.17,-7.62 77.27,-14.43 77.27,-58.22 0,-40.27 -24.76,-60.68 -82.98,-60.68 -32.92,0 -61.76,7.08 -86.79,23.95" style="fill:#231f20;fill-opacity:1;fill-rule:nonzero;stroke:none" transform="matrix(0.13333333,0,0,-0.13333333,0,546.22667)"/>
      <path id="path30" d="m 7609.89,1550.62 c 0,72.64 36.46,103.93 101.76,103.93 39.18,0 61.75,-12.25 75.63,-26.11 l -19.59,-20.14 c -12.24,10.88 -27.75,19.86 -56.04,19.86 -50.34,0 -74.28,-25.3 -74.28,-77.81 0,-53.32 19.32,-79.17 74.01,-79.17 50.06,0 62.02,20.13 62.02,60.13 v 5.71 h -65.01 v 24.48 h 92.22 v -25.3 c 0,-55.5 -16.32,-89.5 -90.32,-89.5 -74,0 -100.4,35.63 -100.4,103.92" style="fill:#231f20;fill-opacity:1;fill-rule:nonzero;stroke:none" transform="matrix(0.13333333,0,0,-0.13333333,0,546.22667)"/>
      <path id="path31" d="m 7861.82,1651.29 h 35.92 l 68.01,-162.97 68.29,162.97 h 35.37 v -201.6 h -26.93 v 155.62 l -65.84,-155.62 h -22.86 l -65.57,155.35 v -155.35 h -26.39 v 201.6" style="fill:#231f20;fill-opacity:1;fill-rule:nonzero;stroke:none" transform="matrix(0.13333333,0,0,-0.13333333,0,546.22667)"/>
      <path id="path32" d="m 8232.65,1474.44 c 29.92,0 43.53,9.52 43.53,33.47 0,23.12 -13.33,32.65 -44.07,32.65 h -62.85 v -66.12 z m -0.54,91.69 c 30.74,0 38.9,12.78 38.9,31.56 0,18.77 -10.88,28.57 -38.9,28.57 h -62.85 v -60.13 z m -89.79,85.16 h 88.97 c 47.07,0 67.47,-15.78 67.47,-49.79 0,-23.4 -7.07,-40.27 -25.3,-45.98 22.85,-5.72 30.47,-21.76 30.47,-50.06 0,-41.9 -25.31,-55.77 -74.28,-55.77 h -87.33 v 201.6" style="fill:#231f20;fill-opacity:1;fill-rule:nonzero;stroke:none" transform="matrix(0.13333333,0,0,-0.13333333,0,546.22667)"/>
      <path id="path33" d="m 8364.59,1651.29 h 27.48 v -83.25 h 113.45 v 83.25 H 8533 v -201.6 h -27.48 v 91.14 h -113.45 v -91.14 h -27.48 v 201.6" style="fill:#231f20;fill-opacity:1;fill-rule:nonzero;stroke:none" transform="matrix(0.13333333,0,0,-0.13333333,0,546.22667)"/>
    </g>
  </g>
</svg>