<?xml version="1.0" encoding="UTF-8"?>
<svg width="13" height="13" viewBox="0 0 444 444" xmlns="http://www.w3.org/2000/svg">
    <g id="g1">
        <g id="group-white-large">
            <path fill="#dad7d7" stroke="none" d="M 225.657928 401.216125 L 225.657928 364.681183 C 303.818909 364.681183 367.742126 304.953339 370.893921 230.395996 L 408.822021 230.395996 C 405.648132 325.103973 324.732605 401.216125 225.657928 401.216125"/>
            <path fill="#d3d2d2" stroke="none" d="M 37.850189 213.674652 C 37.850189 116.305328 118.795166 37.093323 218.291718 37.093323 L 218.291718 0.558655 C 98.018707 0.558655 0.516846 95.973328 0.516846 213.674652 C 0.516846 215.608002 0.613556 217.517334 0.666718 219.436005 L 37.998703 219.436005 C 37.936005 217.517334 37.850189 215.608002 37.850189 213.674652"/>
        </g>
        <g id="group-blue">
            <path fill="#00388b" stroke="none" d="M 225.369324 324.493317 L 225.369324 361.028137 C 299.423981 361.028137 360.209351 303.241333 365.072021 230.395996 L 328.421295 230.395996 C 323.645325 283.073334 279.27066 324.493317 225.369324 324.493317"/>
            <path fill="#00388b" stroke="none" d="M 78.015991 217.328003 C 78.015991 140.106659 140.841339 77.281342 218.062653 77.281342 L 218.062653 40.746674 C 120.694641 40.746674 41.481323 119.958649 41.481323 217.328003 C 41.481323 218.034668 41.5 218.734665 41.517334 219.436005 L 78.046661 219.436005 C 78.031998 218.734665 78.015991 218.033325 78.015991 217.328003"/>
        </g>
        <g id="group-white-small">
            <path fill="#d3d2d2" stroke="none" d="M 221.716003 361.028137 L 221.716003 324.493317 C 167.814667 324.493317 123.43866 283.073334 118.664001 230.395996 L 82.013321 230.395996 C 86.875992 303.241333 147.659973 361.028137 221.716003 361.028137"/>
        </g>
    </g>
</svg>
